HIERARCHY
ROOT Hips
{
 OFFSET 0.000000 0.000000 0.000000
 CHANNELS 6 Xposition Yposition Zposition Yrotation Xrotation Zrotation
 JOINT Chest
 {
  OFFSET 0.000000 9.585900 0.002600
  CHANNELS 3 Yrotation Xrotation Zrotation
  JOINT Chest2
  {
   OFFSET 0.000000 9.601200 -0.005300
   CHANNELS 3 Yrotation Xrotation Zrotation
   JOINT Chest3
   {
    OFFSET 0.000000 9.561800 0.000000
    CHANNELS 3 Yrotation Xrotation Zrotation
    JOINT Chest4
    {
     OFFSET 0.000000 9.552100 0.000000
     CHANNELS 3 Yrotation Xrotation Zrotation
     JOINT Neck
     {
      OFFSET 0.000000 14.453000 0.000000
      CHANNELS 3 Yrotation Xrotation Zrotation
      JOINT Head
      {
       OFFSET 0.000000 8.936500 -0.011300
       CHANNELS 3 Yrotation Xrotation Zrotation
       End Site
       {
        OFFSET 0.000000 17.073600 -0.006000
       }
      }
     }
     JOINT RightCollar
     {
      OFFSET -2.921100 9.558500 0.000000
      CHANNELS 3 Yrotation Xrotation Zrotation
      JOINT RightShoulder
      {
       OFFSET -13.519700 0.000000 0.000000
       CHANNELS 3 Yrotation Xrotation Zrotation
       JOINT RightElbow
       {
        OFFSET 0.000000 -29.696600 0.000000
        CHANNELS 3 Yrotation Xrotation Zrotation
        JOINT RightWrist
        {
         OFFSET 0.000000 -24.004700 0.000000
         CHANNELS 3 Yrotation Xrotation Zrotation
         End Site
         {
          OFFSET 0.000000 -17.728500 0.000000
         }
        }
       }
      }
     }
     JOINT LeftCollar
     {
      OFFSET 2.921100 9.558500 0.000000
      CHANNELS 3 Yrotation Xrotation Zrotation
      JOINT LeftShoulder
      {
       OFFSET 13.519700 0.000000 0.000000
       CHANNELS 3 Yrotation Xrotation Zrotation
       JOINT LeftElbow
       {
        OFFSET 0.000000 -29.696600 0.000000
        CHANNELS 3 Yrotation Xrotation Zrotation
        JOINT LeftWrist
        {
         OFFSET 0.000000 -24.004700 0.000000
         CHANNELS 3 Yrotation Xrotation Zrotation
         End Site
         {
          OFFSET 0.000000 -17.728500 0.000000
         }
        }
       }
      }
     }
    }
   }
  }
 }
 JOINT RightHip
 {
  OFFSET -7.771700 -0.012900 -0.001300
  CHANNELS 3 Yrotation Xrotation Zrotation
  JOINT RightKnee
  {
   OFFSET 0.000000 -40.869800 0.001200
   CHANNELS 3 Yrotation Xrotation Zrotation
   JOINT RightAnkle
   {
    OFFSET 0.000000 -39.717900 0.002100
    CHANNELS 3 Yrotation Xrotation Zrotation
    JOINT RightToe
    {
     OFFSET 0.000000 -4.965400 11.033500
     CHANNELS 3 Yrotation Xrotation Zrotation
     End Site
     {
      OFFSET 0.000000 -1.423100 5.872300
     }
    }
   }
  }
 }
 JOINT LeftHip
 {
  OFFSET 7.771700 -0.012900 -0.001300
  CHANNELS 3 Yrotation Xrotation Zrotation
  JOINT LeftKnee
  {
   OFFSET 0.000000 -40.869800 0.001200
   CHANNELS 3 Yrotation Xrotation Zrotation
   JOINT LeftAnkle
   {
    OFFSET 0.000000 -39.717900 0.002100
    CHANNELS 3 Yrotation Xrotation Zrotation
    JOINT LeftToe
    {
     OFFSET 0.000000 -4.965400 11.033500
     CHANNELS 3 Yrotation Xrotation Zrotation
     End Site
     {
      OFFSET 0.000000 -1.423100 5.872300
     }
    }
   }
  }
 }
}
MOTION
Frames: 5
Frame Time: 0.008333
0.000000 85.388000 0.000000 0.000000 -5.767877 0.000000 0.000000 11.653817 0.000000 0.000000 -5.885947 0.000000 0.000000 -0.000000 0.000000 0.000000 -0.000000 0.000000 0.000000 12.528835 0.000000 0.000000 0.711642 0.000000 0.000000 -0.000000 0.000000 0.000000 0.000000 -90.000000 0.000000 -2.309062 0.000000 0.000000 2.309062 0.000000 0.000000 -0.000000 0.000000 0.000000 -0.000000 90.000000 0.000000 -2.309062 0.000000 0.000000 2.309062 0.000000 0.000000 8.520406 0.000000 0.000000 1.905762 0.000000 -0.000000 -4.658285 0.000000 0.000000 -0.000000 0.000000 0.000000 8.520406 0.000000 0.000000 1.905762 0.000000 -0.000000 -4.658285 0.000000 0.000000 -0.000000 0.000000
-60.060131 44.011534 18.871916 173.699801 -25.489493 -1.607387 2.401165 17.107728 3.576840 0.202731 1.867336 0.374273 0.359130 3.089183 0.643832 2.133372 14.980109 3.388411 -6.672464 10.606033 -4.082286 -6.339580 -14.475438 -2.925414 18.764655 -0.379719 -8.518519 29.748867 -42.983821 -29.084864 -86.290621 -58.058303 103.687886 -18.011570 -0.719684 -34.024054 -14.986190 -5.363271 -2.511294 23.790446 -34.166774 8.409499 115.097673 -46.991900 -130.019175 31.199232 -3.544625 18.151905 -5.041648 -65.172159 14.287654 -143.373174 65.630928 -141.531454 -9.257368 -26.658447 7.311331 0.221214 -0.706479 0.109079 4.619336 -53.864376 1.534008 176.162429 60.783146 176.783459 -1.607005 -39.827127 3.004823 0.001669 0.021703 -0.017734
-60.052312 44.014176 18.877205 173.651123 -25.461459 -1.679187 2.461923 17.081475 3.659082 0.199291 1.879197 0.364608 0.366219 3.080292 0.654820 2.128176 14.988772 3.393645 -6.665449 10.565179 -4.058553 -6.351442 -14.536804 -2.880759 18.780326 -0.393570 -8.523863 29.747297 -42.990784 -29.084352 -86.542265 -58.268669 103.895945 -17.934488 -0.735685 -34.088056 -14.976344 -5.371966 -2.520408 23.735809 -34.108492 8.389768 115.271008 -46.991062 -130.201557 31.225128 -3.592035 17.990680 -5.067490 -65.188081 14.376255 -143.406543 65.652130 -141.510639 -9.179896 -26.721550 7.302990 0.139372 -0.586435 0.076984 4.531676 -53.905760 1.662677 176.095828 60.766264 176.749994 -1.587068 -39.838757 2.968934 0.004599 0.026560 -0.023567
-60.050952 44.019730 18.876196 173.656561 -25.469304 -1.732476 2.459643 17.107651 3.686752 0.205673 1.876647 0.368276 0.369148 3.073933 0.663876 2.127454 15.019265 3.391066 -6.658249 10.497963 -4.023362 -6.368360 -14.607796 -2.832342 18.789159 -0.434851 -8.527946 29.742277 -42.990401 -29.081077 -86.804335 -58.461070 104.114897 -17.857824 -0.748019 -34.120746 -14.973051 -5.402408 -2.511374 23.682371 -34.058681 8.382360 115.510374 -46.995410 -130.472251 31.218129 -3.605589 17.959351 -5.122708 -65.169516 14.439000 -143.478387 65.652865 -141.550815 -9.180285 -26.748135 7.300639 0.124329 -0.542368 0.069824 4.453241 -53.903584 1.736728 176.060068 60.758950 176.727674 -1.580456 -39.843404 2.951517 0.007001 0.028907 -0.018885
-60.052164 44.024763 18.875874 173.655265 -25.471800 -1.764671 2.462174 17.125663 3.697754 0.213019 1.874138 0.373371 0.364506 3.095891 0.649649 2.143150 14.988585 3.418241 -6.660685 10.469386 -4.005528 -6.382802 -14.670655 -2.793378 18.792495 -0.445714 -8.523464 29.731937 -42.987994 -29.086203 -87.051186 -58.624331 104.319836 -17.789986 -0.758104 -34.119567 -14.982532 -5.403059 -2.515901 23.622676 -34.004991 8.377346 115.800305 -47.055871 -130.760916 31.169148 -3.585097 17.954351 -5.162258 -65.151386 14.487928 -143.560419 65.659233 -141.609532 -9.209312 -26.819351 7.313561 0.124208 -0.472640 0.057514 4.406606 -53.904327 1.782851 176.037110 60.755200 176.707557 -1.576429 -39.844158 2.967270 0.006847 0.029026 -0.036977
